<mxfile host="app.diagrams.net" modified="2023-10-04T01:54:42.708Z" agent="Mozilla/5.0 (Windows NT 10.0; Win64; x64; rv:109.0) Gecko/20100101 Firefox/118.0" etag="pul0ehlQgfhotgZ_LQ3D" version="22.0.2" type="github">
  <diagram name="Page-1" id="7jghJLcOTrKippOhbfpi">
    <mxGraphModel dx="1257" dy="671" grid="1" gridSize="10" guides="1" tooltips="1" connect="1" arrows="1" fold="1" page="1" pageScale="1" pageWidth="850" pageHeight="1100" math="0" shadow="0">
      <root>
        <mxCell id="0" />
        <mxCell id="1" parent="0" />
        <mxCell id="mEQuAtGTbZnanOpoJRLI-33" value="" style="edgeStyle=orthogonalEdgeStyle;rounded=0;orthogonalLoop=1;jettySize=auto;html=1;" edge="1" parent="1" source="mEQuAtGTbZnanOpoJRLI-3" target="mEQuAtGTbZnanOpoJRLI-6">
          <mxGeometry relative="1" as="geometry" />
        </mxCell>
        <mxCell id="mEQuAtGTbZnanOpoJRLI-3" value="Start" style="ellipse;whiteSpace=wrap;html=1;" vertex="1" parent="1">
          <mxGeometry x="198.5" y="70" width="75" height="50" as="geometry" />
        </mxCell>
        <mxCell id="mEQuAtGTbZnanOpoJRLI-34" value="" style="edgeStyle=orthogonalEdgeStyle;rounded=0;orthogonalLoop=1;jettySize=auto;html=1;" edge="1" parent="1" source="mEQuAtGTbZnanOpoJRLI-6" target="mEQuAtGTbZnanOpoJRLI-7">
          <mxGeometry relative="1" as="geometry" />
        </mxCell>
        <mxCell id="mEQuAtGTbZnanOpoJRLI-6" value="Input Angka" style="shape=parallelogram;perimeter=parallelogramPerimeter;whiteSpace=wrap;html=1;fixedSize=1;" vertex="1" parent="1">
          <mxGeometry x="176" y="160" width="120" height="60" as="geometry" />
        </mxCell>
        <mxCell id="mEQuAtGTbZnanOpoJRLI-26" value="" style="edgeStyle=orthogonalEdgeStyle;rounded=0;orthogonalLoop=1;jettySize=auto;html=1;" edge="1" parent="1" source="mEQuAtGTbZnanOpoJRLI-7" target="mEQuAtGTbZnanOpoJRLI-8">
          <mxGeometry relative="1" as="geometry" />
        </mxCell>
        <mxCell id="mEQuAtGTbZnanOpoJRLI-7" value="tebakan" style="rounded=0;whiteSpace=wrap;html=1;" vertex="1" parent="1">
          <mxGeometry x="176" y="260" width="120" height="60" as="geometry" />
        </mxCell>
        <mxCell id="mEQuAtGTbZnanOpoJRLI-27" value="" style="edgeStyle=orthogonalEdgeStyle;rounded=0;orthogonalLoop=1;jettySize=auto;html=1;" edge="1" parent="1" source="mEQuAtGTbZnanOpoJRLI-8" target="mEQuAtGTbZnanOpoJRLI-16">
          <mxGeometry relative="1" as="geometry" />
        </mxCell>
        <mxCell id="mEQuAtGTbZnanOpoJRLI-40" value="yes" style="edgeLabel;html=1;align=center;verticalAlign=middle;resizable=0;points=[];" vertex="1" connectable="0" parent="mEQuAtGTbZnanOpoJRLI-27">
          <mxGeometry x="-0.3654" relative="1" as="geometry">
            <mxPoint as="offset" />
          </mxGeometry>
        </mxCell>
        <mxCell id="mEQuAtGTbZnanOpoJRLI-35" value="" style="edgeStyle=orthogonalEdgeStyle;rounded=0;orthogonalLoop=1;jettySize=auto;html=1;entryX=0.444;entryY=0.021;entryDx=0;entryDy=0;entryPerimeter=0;" edge="1" parent="1" source="mEQuAtGTbZnanOpoJRLI-8" target="mEQuAtGTbZnanOpoJRLI-10">
          <mxGeometry relative="1" as="geometry">
            <mxPoint x="400" y="427" as="targetPoint" />
            <Array as="points">
              <mxPoint x="470" y="444" />
              <mxPoint x="470" y="521" />
            </Array>
          </mxGeometry>
        </mxCell>
        <mxCell id="mEQuAtGTbZnanOpoJRLI-41" value="no" style="edgeLabel;html=1;align=center;verticalAlign=middle;resizable=0;points=[];" vertex="1" connectable="0" parent="mEQuAtGTbZnanOpoJRLI-35">
          <mxGeometry x="-0.3692" relative="1" as="geometry">
            <mxPoint as="offset" />
          </mxGeometry>
        </mxCell>
        <mxCell id="mEQuAtGTbZnanOpoJRLI-8" value="if(input=tebakan)" style="rhombus;whiteSpace=wrap;html=1;" vertex="1" parent="1">
          <mxGeometry x="162" y="370" width="148" height="148" as="geometry" />
        </mxCell>
        <mxCell id="mEQuAtGTbZnanOpoJRLI-37" value="" style="edgeStyle=orthogonalEdgeStyle;rounded=0;orthogonalLoop=1;jettySize=auto;html=1;" edge="1" parent="1" source="mEQuAtGTbZnanOpoJRLI-10" target="mEQuAtGTbZnanOpoJRLI-13">
          <mxGeometry relative="1" as="geometry" />
        </mxCell>
        <mxCell id="mEQuAtGTbZnanOpoJRLI-43" value="yes" style="edgeLabel;html=1;align=center;verticalAlign=middle;resizable=0;points=[];" vertex="1" connectable="0" parent="mEQuAtGTbZnanOpoJRLI-37">
          <mxGeometry x="-0.0664" y="-2" relative="1" as="geometry">
            <mxPoint y="-1" as="offset" />
          </mxGeometry>
        </mxCell>
        <mxCell id="mEQuAtGTbZnanOpoJRLI-38" value="" style="edgeStyle=orthogonalEdgeStyle;rounded=0;orthogonalLoop=1;jettySize=auto;html=1;" edge="1" parent="1" source="mEQuAtGTbZnanOpoJRLI-10" target="mEQuAtGTbZnanOpoJRLI-12">
          <mxGeometry relative="1" as="geometry" />
        </mxCell>
        <mxCell id="mEQuAtGTbZnanOpoJRLI-44" value="no" style="edgeLabel;html=1;align=center;verticalAlign=middle;resizable=0;points=[];" vertex="1" connectable="0" parent="mEQuAtGTbZnanOpoJRLI-38">
          <mxGeometry x="-0.1316" y="6" relative="1" as="geometry">
            <mxPoint as="offset" />
          </mxGeometry>
        </mxCell>
        <mxCell id="mEQuAtGTbZnanOpoJRLI-10" value="jika tebakan &amp;gt; input" style="rhombus;whiteSpace=wrap;html=1;" vertex="1" parent="1">
          <mxGeometry x="410" y="560" width="134" height="134" as="geometry" />
        </mxCell>
        <mxCell id="mEQuAtGTbZnanOpoJRLI-47" style="edgeStyle=orthogonalEdgeStyle;rounded=0;orthogonalLoop=1;jettySize=auto;html=1;exitX=1;exitY=0.5;exitDx=0;exitDy=0;entryX=0;entryY=0.5;entryDx=0;entryDy=0;" edge="1" parent="1" source="mEQuAtGTbZnanOpoJRLI-12" target="mEQuAtGTbZnanOpoJRLI-14">
          <mxGeometry relative="1" as="geometry" />
        </mxCell>
        <mxCell id="mEQuAtGTbZnanOpoJRLI-48" value="yes" style="edgeLabel;html=1;align=center;verticalAlign=middle;resizable=0;points=[];" vertex="1" connectable="0" parent="mEQuAtGTbZnanOpoJRLI-47">
          <mxGeometry x="0.0068" y="3" relative="1" as="geometry">
            <mxPoint as="offset" />
          </mxGeometry>
        </mxCell>
        <mxCell id="mEQuAtGTbZnanOpoJRLI-49" style="edgeStyle=orthogonalEdgeStyle;rounded=0;orthogonalLoop=1;jettySize=auto;html=1;exitX=0.5;exitY=1;exitDx=0;exitDy=0;entryX=0.5;entryY=0;entryDx=0;entryDy=0;" edge="1" parent="1" source="mEQuAtGTbZnanOpoJRLI-12" target="mEQuAtGTbZnanOpoJRLI-16">
          <mxGeometry relative="1" as="geometry">
            <mxPoint x="280" y="1000" as="targetPoint" />
          </mxGeometry>
        </mxCell>
        <mxCell id="mEQuAtGTbZnanOpoJRLI-50" value="no" style="edgeLabel;html=1;align=center;verticalAlign=middle;resizable=0;points=[];" vertex="1" connectable="0" parent="mEQuAtGTbZnanOpoJRLI-49">
          <mxGeometry x="-0.7708" y="-1" relative="1" as="geometry">
            <mxPoint y="-1" as="offset" />
          </mxGeometry>
        </mxCell>
        <mxCell id="mEQuAtGTbZnanOpoJRLI-12" value="jika tebakan &amp;lt; input" style="rhombus;whiteSpace=wrap;html=1;" vertex="1" parent="1">
          <mxGeometry x="407" y="770" width="140" height="140" as="geometry" />
        </mxCell>
        <mxCell id="mEQuAtGTbZnanOpoJRLI-42" style="edgeStyle=orthogonalEdgeStyle;rounded=0;orthogonalLoop=1;jettySize=auto;html=1;exitX=0.5;exitY=0;exitDx=0;exitDy=0;entryX=1;entryY=0.5;entryDx=0;entryDy=0;" edge="1" parent="1" source="mEQuAtGTbZnanOpoJRLI-13" target="mEQuAtGTbZnanOpoJRLI-7">
          <mxGeometry relative="1" as="geometry" />
        </mxCell>
        <mxCell id="mEQuAtGTbZnanOpoJRLI-13" value="tebakan terlalu besar" style="shape=parallelogram;perimeter=parallelogramPerimeter;whiteSpace=wrap;html=1;fixedSize=1;" vertex="1" parent="1">
          <mxGeometry x="640" y="587" width="160" height="80" as="geometry" />
        </mxCell>
        <mxCell id="mEQuAtGTbZnanOpoJRLI-45" style="edgeStyle=orthogonalEdgeStyle;rounded=0;orthogonalLoop=1;jettySize=auto;html=1;exitX=1;exitY=0.5;exitDx=0;exitDy=0;entryX=1;entryY=0.5;entryDx=0;entryDy=0;" edge="1" parent="1" source="mEQuAtGTbZnanOpoJRLI-14" target="mEQuAtGTbZnanOpoJRLI-7">
          <mxGeometry relative="1" as="geometry">
            <Array as="points">
              <mxPoint x="830" y="840" />
              <mxPoint x="830" y="290" />
            </Array>
          </mxGeometry>
        </mxCell>
        <mxCell id="mEQuAtGTbZnanOpoJRLI-14" value="terlalu kecil" style="shape=parallelogram;perimeter=parallelogramPerimeter;whiteSpace=wrap;html=1;fixedSize=1;" vertex="1" parent="1">
          <mxGeometry x="610" y="790" width="200" height="100" as="geometry" />
        </mxCell>
        <mxCell id="mEQuAtGTbZnanOpoJRLI-51" style="edgeStyle=orthogonalEdgeStyle;rounded=0;orthogonalLoop=1;jettySize=auto;html=1;exitX=1;exitY=0.5;exitDx=0;exitDy=0;entryX=0;entryY=0.5;entryDx=0;entryDy=0;" edge="1" parent="1" source="mEQuAtGTbZnanOpoJRLI-16" target="mEQuAtGTbZnanOpoJRLI-23">
          <mxGeometry relative="1" as="geometry" />
        </mxCell>
        <mxCell id="mEQuAtGTbZnanOpoJRLI-16" value="tebakan benar" style="shape=parallelogram;perimeter=parallelogramPerimeter;whiteSpace=wrap;html=1;fixedSize=1;" vertex="1" parent="1">
          <mxGeometry x="162" y="980" width="120" height="60" as="geometry" />
        </mxCell>
        <mxCell id="mEQuAtGTbZnanOpoJRLI-23" value="stop" style="ellipse;whiteSpace=wrap;html=1;" vertex="1" parent="1">
          <mxGeometry x="403" y="970" width="120" height="80" as="geometry" />
        </mxCell>
      </root>
    </mxGraphModel>
  </diagram>
</mxfile>
